<svg xmlns="http://www.w3.org/2000/svg" width="122.825" height="655.007" viewBox="0 0 122.825 655.007">
    <defs>
        <style>
            .prefix__cls-1{fill:#024137}
        </style>
    </defs>
    <g id="prefix__main_logo" transform="rotate(90 61.413 61.413)">
        <path id="prefix__패스_1" d="M54.071 68.168c-5.834 3.378-11.975 5.22-17.5 5.22-16.581 0-21.8-13.2-21.187-24.872A13.626 13.626 0 0116 44.524c15.041-.307 25.481-2.149 34.386-5.524 12.283-4.913 18.731-12.282 18.731-20.88C69.116 7.062 60.212 0 46.394 0 34.112 0 22.443 5.22 13.539 15.046 8.012 20.88.335 33.47.028 46.98c-.614 17.81 8.9 37.154 32.241 37.154 11.668 0 22.415-7.984 25.793-11.054a3.5 3.5 0 00.921-1.842l.921-5.527c0-.614-.307-.921-.614-.307-1.535.307-3.99 2.15-5.219 2.764zM16.916 35.926C21.829 17.2 32.576 6.448 45.166 6.448c6.755 0 11.668 4.3 11.668 10.747 0 11.669-15.967 18.731-39.918 18.731z" class="prefix__cls-1" data-name="패스 1" transform="translate(503.598 38.69)"/>
        <path id="prefix__패스_2" d="M54.07 68.168c-5.834 3.378-11.975 5.22-17.5 5.22-16.581 0-21.8-13.2-21.187-24.872a13.634 13.634 0 01.614-3.992c15.044-.307 25.484-2.149 34.389-5.524 12.282-4.913 18.731-12.282 18.731-20.88C69.116 7.062 60.212 0 46.394 0 34.112 0 22.443 5.22 13.538 15.046 8.012 20.88.335 33.47.028 46.98c-.614 17.81 8.9 37.154 32.241 37.154 11.668 0 22.415-7.984 25.793-11.054a3.5 3.5 0 00.921-1.842l.921-5.527c0-.614-.307-.921-.614-.307-1.842.307-4.298 2.15-5.22 2.764zM16.609 35.926C21.829 17.2 32.269 6.448 44.858 6.448c6.756 0 11.668 4.3 11.668 10.747.001 11.669-15.966 18.731-39.917 18.731z" class="prefix__cls-1" data-name="패스 2" transform="translate(585.891 38.69)"/>
        <path id="prefix__패스_3" d="M22.415 48.823c3.071-15.046 3.992-15.66 9.212-23.03 6.141-9.212 13.511-14.125 20.573-14.125 6.141 0 9.212 3.992 9.212 11.668A29.944 29.944 0 0160.8 30.4l-8.9 49.437a2.962 2.962 0 003.071 3.685h16.881l.614-4.3s-3.378-.921-3.992-1.228c-1.228-.614-.921-2.456-.921-2.456l7.984-44.218c1.228-7.062 1.842-11.361 1.842-14.739C77.379 5.834 71.545 0 60.8 0c-7.064 0-15.048 2.764-21.5 7.062-4.606 3.378-7.369 6.448-12.589 12.9l3.381-18.427-20.88 1.536L8.6 7.369c5.834 1.842 3.992 7.369 2.763 13.511C11.054 23.337 3.378 63.869 0 83.214h15.353z" class="prefix__cls-1" data-name="패스 3" transform="translate(145.286 36.847)"/>
        <path id="prefix__패스_4" d="M.434 79.529a52.641 52.641 0 0022.416 5.834c19.65 0 33.162-11.363 33.162-26.714 0-8.6-5.527-16.888-13.2-23.337-7.984-6.755-15.66-10.44-15.66-17.2 0-6.448 5.22-10.44 13.511-10.44 7.062 0 10.133 2.456 11.668 9.212a13.3 13.3 0 00.307 1.535l5.527-.614L61.232 4.3a2.346 2.346 0 00-.614-1.535A46.588 46.588 0 0044.651 0a43.364 43.364 0 00-21.494 5.834c-12.9 7.369-9.826 20.573-9.519 22.108 2.149 7.062 9.519 12.282 15.66 17.81 6.448 5.527 11.668 10.748 11.668 18.117 0 7.984-5.834 14.125-14.432 14.125a17.405 17.405 0 01-15.353-9.519c-2.149-3.685-1.842-5.834-1.842-5.834H3.5L.127 77.994a1.35 1.35 0 00.307 1.535z" class="prefix__cls-1" data-name="패스 4" transform="translate(290.706 36.847)"/>
        <path id="prefix__패스_5" d="M29.217 0L8.337 1.535l-.614 4.3c5.834 1.842 3.992 7.369 2.764 13.511C10.18 21.8 2.5 63.869.047 77.38a2.962 2.962 0 003.071 3.685h16.888l.614-4.3s-3.378-.921-3.992-1.228c-1.228-.614-.921-2.457-.921-2.457z" class="prefix__cls-1" data-name="패스 5" transform="translate(0 39.304)"/>
        <path id="prefix__패스_6" d="M29.217 0L8.337 1.535l-.614 4.3c5.834 1.842 3.992 7.369 2.764 13.511C10.18 21.8 2.5 63.869.047 77.38a2.962 2.962 0 003.071 3.685h16.888l.614-4.3s-3.378-.921-3.992-1.228c-1.228-.614-.921-2.457-.921-2.457z" class="prefix__cls-1" data-name="패스 6" transform="translate(246.263 39.304)"/>
        <path id="prefix__패스_7" d="M0 82.293h15.353l7.984-45.753c1.535-7.369 2.456-9.519 4.3-13.2a15.141 15.141 0 0113.2-7.984c4.3 0 12.9 2.764 12.9 2.764L56.5 2.149a1.128 1.128 0 00-.307-.921A8.286 8.286 0 0051.586 0C44.217 0 34.7 6.448 27.021 16.581L29.785.614 8.9 2.149l-.614 4.3c5.834 1.842 3.992 7.369 2.763 13.511z" class="prefix__cls-1" data-name="패스 7" transform="translate(438.836 38.383)"/>
        <path id="prefix__패스_8" d="M22.108 48.823c3.071-15.046 3.992-15.66 9.212-23.03 6.141-9.212 13.511-14.125 20.573-14.125 6.141 0 9.212 3.992 9.212 11.668a29.945 29.945 0 01-.614 7.062l-8.6 49.437a2.962 2.962 0 003.071 3.685h16.89l.614-4.3s-3.378-.921-3.992-1.228c-1.228-.614-.921-2.456-.921-2.456l7.984-44.216c1.228-7.062 1.842-11.361 1.842-14.739C77.379 5.834 71.545 0 60.8 0c-7.064 0-15.048 2.764-21.5 7.062-4.606 3.378-7.369 6.448-12.589 12.9l3.381-18.427-20.88 1.536L8.6 7.369c5.834 1.842 3.992 7.369 2.764 13.511C11.054 23.337 3.378 63.869 0 83.214h15.353z" class="prefix__cls-1" data-name="패스 8" transform="translate(48.869 36.847)"/>
        <path id="prefix__패스_9" d="M8.9 18.117a8.911 8.911 0 008.9-8.9A9.179 9.179 0 008.9 0 8.982 8.982 0 000 9.212a8.911 8.911 0 008.9 8.9" class="prefix__cls-1" data-name="패스 9" transform="translate(15.093 6.755)"/>
        <path id="prefix__패스_10" d="M8.9 18.117a8.911 8.911 0 008.9-8.9A9.179 9.179 0 008.9 0 8.982 8.982 0 000 9.212a8.911 8.911 0 008.9 8.9" class="prefix__cls-1" data-name="패스 10" transform="translate(261.355 6.755)"/>
        <path id="prefix__패스_11" d="M73.08 4.3C71.545 3.378 65.711 0 59.263 0a35.768 35.768 0 00-21.495 6.755C28.557 12.9 22.415 23.644 18.731 40.532H1.842L0 50.665h16.888L4.3 120.368h15.66l12.59-70.624h.614l25.179-4.3.614-4.913H34.084c2.764-11.054 5.22-19.345 7.369-23.03 3.071-5.527 7.984-8.9 12.589-8.9 10.133 0 11.975 8.9 12.282 9.826v.307l4.913-.307s2.15-11.058 2.458-11.979C74 5.22 74 4.913 73.08 4.3z" class="prefix__cls-1" data-name="패스 11" transform="translate(371.283)"/>
    </g>
</svg>
