<svg xmlns="http://www.w3.org/2000/svg" width="32" height="32" viewBox="0 0 32 32">
    <defs>
        <style>
            .cls-1{fill:#a23737;opacity:0}.cls-2{fill:#fff}
        </style>
    </defs>
    <g id="icon_instagram" transform="translate(5.132 5)">
        <path id="guide" d="M0 0h32v32H0z" class="cls-1" transform="translate(-5.132 -5)"/>
        <path id="패스_5223" d="M177.545 93.67h-9.467a6.464 6.464 0 0 0-6.464 6.464v9.466a6.464 6.464 0 0 0 6.464 6.464h9.467a6.464 6.464 0 0 0 6.464-6.464v-9.467a6.464 6.464 0 0 0-6.464-6.464m4.4 16.1a4.291 4.291 0 0 1-4.291 4.291h-9.689a4.291 4.291 0 0 1-4.291-4.291v-9.689a4.291 4.291 0 0 1 4.291-4.291h9.689a4.291 4.291 0 0 1 4.291 4.291z" class="cls-2" data-name="패스 5223" transform="translate(-161.613 -93.67)"/>
        <path id="패스_5224" d="M232.862 159.785a5.811 5.811 0 1 0 5.811 5.811 5.811 5.811 0 0 0-5.811-5.811m0 9.578a3.767 3.767 0 1 1 3.767-3.767 3.767 3.767 0 0 1-3.767 3.767" class="cls-2" data-name="패스 5224" transform="translate(-221.664 -154.342)"/>
        <path id="패스_5225" d="M355.494 140.655a1.354 1.354 0 1 0 1.354 1.354 1.354 1.354 0 0 0-1.354-1.354" class="cls-2" data-name="패스 5225" transform="translate(-338.291 -136.787)"/>
    </g>
</svg>
