<svg xmlns="http://www.w3.org/2000/svg" width="92" height="92" viewBox="0 0 92 92">
  <g id="logo_official_site" data-name="logo_official site" transform="translate(-307.53 -184.09)">
    <g id="그룹_2740" transform="translate(307.53 184.09)">
      <g id="그룹_2688" transform="translate(7.942 22.752)">
        <path id="패스_2793" d="M113.35.279a37.544,37.544,0,0,1-6.8,52.715c-1.227.947-2.509,1.783-3.847,2.619l.279.279a38.011,38.011,0,0,0,13.215-52.1A30.452,30.452,0,0,0,113.573,0Z" transform="translate(-45.438 0)" fill="#fff"/>
        <path id="패스_2794" d="M18.568,55.891l.279-.279A37.649,37.649,0,0,1,5.633,4.124,46.082,46.082,0,0,1,8.2.279L7.974,0a38.019,38.019,0,0,0,6.747,53.328A46.113,46.113,0,0,0,18.568,55.891Z" transform="translate(-0.003 0)" fill="#fff"/>
      </g>
      <g id="그룹_2690" transform="translate(29.105 77.011)">
        <path id="패스_2807" d="M0,4.625,2.007,0,4.962,1.282l-.279.613L2.453.947,1.9,2.285l1.952.836-.335.613L1.561,2.9.948,4.291l2.286.947-.279.613Z" fill="#fff"/>
        <path id="패스_2808" d="M10.261,8.638A2.306,2.306,0,0,1,8.7,7.523l.669-.334a1.612,1.612,0,0,0,1.115.78c.613.167,1.059,0,1.227-.446a.659.659,0,0,0-.056-.557.812.812,0,0,0-.5-.334L10.6,6.409a1.612,1.612,0,0,1-.836-.669,1.277,1.277,0,0,1-.112-1,1.5,1.5,0,0,1,2.007-1,1.959,1.959,0,0,1,1.338.947l-.613.334a1.662,1.662,0,0,0-.948-.669.82.82,0,0,0-1.059.39c0,.056,0,.056-.056.111a.541.541,0,0,0,.056.5,1.214,1.214,0,0,0,.5.39l.558.223a1.823,1.823,0,0,1,.836.613,1.3,1.3,0,0,1,.112,1.114C12.157,8.582,11.265,8.916,10.261,8.638Z" transform="translate(-3.849 -1.617)" fill="#fff"/>
        <path id="패스_2809" d="M20.875,6.047l-.558,4.346-.781-.111.558-4.346L18.7,5.769l.112-.669,3.513.446-.112.669Z" transform="translate(-8.273 -2.258)" fill="#fff"/>
        <path id="패스_2810" d="M31.164,11.014l-.056-.613,1.84-2.452a.972.972,0,0,0,.223-.669.753.753,0,0,0-1.505.056v.056H31a1.385,1.385,0,0,1,1.282-1.5h.167a1.3,1.3,0,0,1,1.45,1.17v.167A1.656,1.656,0,0,1,33.45,8.34l-1.505,2.006,2.063-.111.056.669Z" transform="translate(-13.712 -2.6)" fill="#fff"/>
        <path id="패스_2811" d="M40.951,10.059A1.439,1.439,0,0,1,39.278,9V8.888l-.39-2.229a1.472,1.472,0,0,1,2.9-.5l.39,2.229a1.41,1.41,0,0,1-1.059,1.672Zm.056-3.733a.727.727,0,0,0-1.45.111.2.2,0,0,0,.056.167L40,8.777a.727.727,0,0,0,1.45-.111A.2.2,0,0,0,41.4,8.5Z" transform="translate(-17.198 -2.202)" fill="#fff"/>
        <path id="패스_2812" d="M49.164,8.058a1.385,1.385,0,0,1-1.784-.836c0-.056,0-.056-.056-.111l-.669-2.118a1.515,1.515,0,0,1,1-1.839,1.444,1.444,0,0,1,1.784.947l.725,2.173a1.384,1.384,0,0,1-.836,1.783ZM48.829,4.38a.733.733,0,0,0-1.45.223V4.77l.669,2.118a.733.733,0,0,0,1.45-.223.2.2,0,0,0-.056-.167Z" transform="translate(-20.616 -1.371)" fill="#fff"/>
        <path id="패스_2813" d="M57.1,5.077a1.467,1.467,0,0,1-1.9-.613c0-.056-.056-.056-.056-.111L54.2,2.291A1.391,1.391,0,0,1,54.978.4a1.428,1.428,0,0,1,1.9.724l.948,2.062a1.465,1.465,0,0,1-.613,1.895C57.208,5.022,57.153,5.077,57.1,5.077ZM56.261,1.4a.758.758,0,0,0-1.45.446c0,.056.056.111.056.167l.948,2.006a.758.758,0,0,0,1.45-.446c0-.056-.056-.111-.056-.167Z" transform="translate(-23.921 -0.118)" fill="#fff"/>
      </g>
      <g id="그룹_2704" transform="translate(16.468 36.954)">
        <g id="그룹_2691" transform="translate(45.582 3.487)">
          <path id="패스_2814" d="M4.96,6.185a3.362,3.362,0,0,1-1.617.446c-1.505,0-1.952-1.226-1.952-2.285a.948.948,0,0,1,.056-.39,9.9,9.9,0,0,0,3.122-.5C5.685,3.009,6.243,2.34,6.243,1.56,6.243.613,5.462,0,4.236,0A3.975,3.975,0,0,0,1.28,1.337,4.755,4.755,0,0,0,0,4.235C-.058,5.851.834,7.578,2.9,7.578a3.718,3.718,0,0,0,2.342-1c.056-.056.056-.111.112-.167l.112-.5c0-.056,0-.056-.056-.056A4.524,4.524,0,0,0,4.96,6.185Zm-3.4-2.9C2.005,1.56,2.953.613,4.124.613A.955.955,0,0,1,5.184,1.5v.111c0,1-1.45,1.672-3.624,1.672Z" transform="translate(0.004)" fill="#fff"/>
        </g>
        <g id="그룹_2692" transform="translate(53.011 3.487)">
          <path id="패스_2815" d="M4.96,6.185a3.362,3.362,0,0,1-1.617.446c-1.505,0-1.952-1.226-1.952-2.285a.948.948,0,0,1,.056-.39,9.9,9.9,0,0,0,3.122-.5C5.685,3.009,6.243,2.34,6.243,1.56,6.243.613,5.462,0,4.236,0A3.975,3.975,0,0,0,1.28,1.337,4.755,4.755,0,0,0,0,4.235C-.058,5.851.834,7.578,2.9,7.578a3.718,3.718,0,0,0,2.342-1c.056-.056.056-.111.112-.167l.112-.5c0-.056,0-.056-.056-.056A4.524,4.524,0,0,0,4.96,6.185Zm-3.4-2.9C2.005,1.56,2.953.613,4.124.613A.955.955,0,0,1,5.184,1.5v.111c0,1-1.45,1.672-3.624,1.672Z" transform="translate(0.004)" fill="#fff"/>
        </g>
        <g id="그룹_2693" transform="translate(13.232 3.38)">
          <path id="패스_2816" d="M1.952,4.346a3.709,3.709,0,0,1,.836-2.062A2.426,2.426,0,0,1,4.628,1c.558,0,.836.334.836,1.059a2.711,2.711,0,0,1-.056.669L4.628,7.244c-.056.167.056.279.223.334H6.412l.056-.39a1.156,1.156,0,0,1-.335-.111c-.112-.056-.056-.223-.056-.223L6.8,2.842A5.493,5.493,0,0,0,6.97,1.5,1.407,1.407,0,0,0,5.743,0H5.464A3.3,3.3,0,0,0,3.513.669,4.435,4.435,0,0,0,2.4,1.839L2.676.167.836.279.725.669c.558.167.335.669.279,1.226C.948,2.118.279,5.8,0,7.523H1.394Z" fill="#fff"/>
        </g>
        <g id="그룹_2694" transform="translate(26.32 3.324)">
          <path id="패스_2817" d="M.056,7.188a5.157,5.157,0,0,0,2.007.557c1.784,0,3.011-1.059,3.011-2.452A2.717,2.717,0,0,0,3.9,3.232c-.725-.613-1.45-1-1.45-1.616,0-.557.446-.947,1.227-.947a.984.984,0,0,1,1.059.724V1.56l.5-.056L5.576.39c0-.056,0-.111-.056-.111A3.517,3.517,0,0,0,4.07,0,3.339,3.339,0,0,0,2.119.557a1.689,1.689,0,0,0-.892,1.95c.167.669.892,1.114,1.394,1.616A2.427,2.427,0,0,1,3.68,5.8,1.25,1.25,0,0,1,2.453,7.077H2.4A1.575,1.575,0,0,1,1,6.241a.9.9,0,0,1-.167-.5h-.5L0,7.077C0,7.133,0,7.188.056,7.188Z" fill="#fff"/>
        </g>
        <g id="그룹_2696" transform="translate(0 3.549)">
          <g id="그룹_2695">
            <path id="패스_2818" d="M2.665,0,.769.111.713.5c.558.167.335.669.279,1.226C.936,1.95.212,5.8-.012,7.021c-.056.167.056.279.223.334H1.773l.056-.39a1.156,1.156,0,0,1-.335-.111c-.112-.056-.056-.223-.056-.223Z" transform="translate(0.026)" fill="#fff"/>
          </g>
        </g>
        <g id="그룹_2697" transform="translate(22.296 3.549)">
          <path id="패스_2819" d="M2.665,0,.769.111.713.5c.558.167.335.669.279,1.226C.936,1.95.212,5.8-.012,7.021c-.056.167.056.279.223.334H1.773l.056-.39a1.156,1.156,0,0,1-.335-.111c-.112-.056-.056-.223-.056-.223Z" transform="translate(0.026)" fill="#fff"/>
        </g>
        <g id="그룹_2699" transform="translate(39.767 3.492)">
          <g id="그룹_2698">
            <path id="패스_2820" d="M0,7.411H1.394l.725-4.124a2.649,2.649,0,0,1,.39-1.17,1.561,1.561,0,0,1,1.227-.78,8.661,8.661,0,0,1,1.171.223L5.13.111V.056A1.228,1.228,0,0,0,4.684,0a3.159,3.159,0,0,0-2.23,1.5L2.732.056.836.167.725.557c.558.167.335.669.279,1.226Z" fill="#fff"/>
          </g>
        </g>
        <g id="그룹_2700" transform="translate(4.544 3.38)">
          <path id="패스_2821" d="M2,4.346a3.709,3.709,0,0,1,.836-2.062A2.426,2.426,0,0,1,4.672,1c.558,0,.836.334.836,1.059a2.711,2.711,0,0,1-.056.669L4.672,7.244c-.056.167.056.279.223.334H6.456l.056-.39a1.156,1.156,0,0,1-.335-.111c-.112-.056-.056-.223-.056-.223l.725-4.012A5.493,5.493,0,0,0,7.014,1.5,1.407,1.407,0,0,0,5.787,0H5.508a3.029,3.029,0,0,0-1.9.669A4.435,4.435,0,0,0,2.5,1.839L2.776.167.881.279.825.669c.558.167.335.669.279,1.226-.056.223-.725,3.9-1,5.628H1.494Z" transform="translate(-0.1)" fill="#fff"/>
        </g>
        <g id="그룹_2701" transform="translate(1.373 0.624)">
          <path id="패스_2822" d="M.836,1.616A.857.857,0,0,0,1.673.78.894.894,0,0,0,.836,0,.857.857,0,0,0,0,.836a.81.81,0,0,0,.836.78h0" fill="#fff"/>
        </g>
        <g id="그룹_2702" transform="translate(23.679 0.624)">
          <path id="패스_2823" d="M.836,1.616A.857.857,0,0,0,1.673.78.894.894,0,0,0,.836,0,.857.857,0,0,0,0,.836H0a.81.81,0,0,0,.836.78" fill="#fff"/>
        </g>
        <g id="그룹_2703" transform="translate(33.634)">
          <path id="패스_2824" d="M6.635.39A2.451,2.451,0,0,0,5.408,0,3.7,3.7,0,0,0,3.4.613,4.918,4.918,0,0,0,1.673,3.678H.167L0,4.569H1.505L.39,10.922H1.784L2.955,4.514h.056L5.3,4.124l.056-.446H3.122A7.207,7.207,0,0,1,3.792,1.56,1.3,1.3,0,0,1,4.907.78a1.086,1.086,0,0,1,1.115.892h.446L6.691.557A.2.2,0,0,0,6.635.39Z" fill="#fff"/>
        </g>
      </g>
      <g id="그룹_2705">
        <path id="패스_2825" d="M46,92A46,46,0,1,1,92,45.972h0A46.043,46.043,0,0,1,46,92ZM46,.836A45.164,45.164,0,1,0,91.275,45.972,45.175,45.175,0,0,0,46,.836Z" fill="#fff"/>
      </g>
      <g id="그룹_2739" transform="translate(15.524 51.844)">
        <g id="그룹_2731" transform="translate(0 0.052)">
          <g id="그룹_2706" transform="translate(25.111 0.084)">
            <path id="패스_2826" d="M.613,0h-.5L0,.446H.5Z" fill="#fff"/>
          </g>
          <g id="그룹_2707" transform="translate(27.112 0.962)">
            <path id="패스_2827" d="M.279,1.5a.586.586,0,0,0,.5.279c.39,0,.5-.167.558-.279a.107.107,0,0,0-.056-.167c-.167-.056-.39-.056-.613-.111a.673.673,0,0,1-.39-.39A.725.725,0,0,1,.558.111,2.373,2.373,0,0,1,1.171,0,.974.974,0,0,1,1.84.223a3.413,3.413,0,0,0-.223.334A.647.647,0,0,0,1.059.334c-.279,0-.446.223-.39.39C.725.78.781.836,1,.836c.335,0,.892.167.669.836a.878.878,0,0,1-1.059.446A.9.9,0,0,1,0,1.839Z" fill="#fff"/>
          </g>
          <g id="그룹_2708" transform="translate(0 0.084)">
            <path id="패스_2828" d="M1.84,2.173,1.059,0H.613L0,3.009H.446L.892.836l.781,2.173h.39L2.676,0h-.39Z" fill="#fff"/>
          </g>
          <g id="그룹_2709" transform="translate(2.706 0.951)">
            <path id="패스_2829" d="M.986,1.226h.39l-.112.39a.307.307,0,0,1-.279.167.418.418,0,0,1-.279.056A.2.2,0,0,1,.54,1.783c-.056,0-.056-.056-.112-.056,0,0,0-.056,0-.056V1.56c.056-.223.223-.334.558-.334m-.892.78a1.026,1.026,0,0,0,.892.111.77.77,0,0,0,.223-.167v.167H1.6L1.878.78V.5A.289.289,0,0,0,1.767.279c0-.111-.112-.167-.167-.223A1.228,1.228,0,0,0,1.154,0,1.313,1.313,0,0,0,.707.111,1,1,0,0,0,.317.39L.484.669C.54.557.6.557.6.5.652.446.707.446.763.39.819.39.875.334.931.334H1.1A.422.422,0,0,1,1.321.39.12.12,0,0,1,1.432.5a.2.2,0,0,0,.056.111V.892H1.042a1.084,1.084,0,0,0-.725.167.811.811,0,0,0-.335.5.433.433,0,0,0,.112.446" transform="translate(0.039)" fill="#fff"/>
          </g>
          <g id="그룹_2710" transform="translate(4.964 0.239)">
            <path id="패스_2830" d="M.558,0,.39.78H.223A.335.335,0,0,1,0,.724V.947C0,1,0,1.059.056,1.059a.2.2,0,0,0,.167.056H.335L.112,2.34a.342.342,0,0,0,.056.334A.4.4,0,0,0,.5,2.842H.836l.056-.334H.669c-.056,0-.112,0-.112-.056V2.285l.223-1.17h.446L1.282.892c0-.056,0-.111-.112-.111H.836L1,0Z" fill="#fff"/>
          </g>
          <g id="그룹_2711" transform="translate(6.325 0.991)">
            <path id="패스_2831" d="M.931,2.062c.112-.056.167-.111.279-.167v.167H1.6L2.046,0H1.6L1.265,1.616c-.056.056-.112.056-.223.111a.426.426,0,0,1-.279.111c-.167,0-.335-.111-.335-.223a.335.335,0,0,1,.056-.223L.707,0H.317L-.017,1.393a.686.686,0,0,0,.112.557.716.716,0,0,0,.558.223c.112-.056.223-.056.279-.111" transform="translate(0.039)" fill="#fff"/>
          </g>
          <g id="그룹_2712" transform="translate(8.491 0.951)">
            <path id="패스_2832" d="M1.282,0A.5.5,0,0,0,1,.056L.836.223V.056H.446L0,2.118H.446L.725.724A.482.482,0,0,1,.892.39.426.426,0,0,1,1.171.279a.2.2,0,0,1,.167.056L1.505.5,1.784.223A.77.77,0,0,1,1.561.056.5.5,0,0,0,1.282,0" fill="#fff"/>
          </g>
          <g id="그룹_2713" transform="translate(10.11 0.951)">
            <path id="패스_2833" d="M.707,1.839A.2.2,0,0,1,.54,1.783a.055.055,0,0,1-.056-.056.055.055,0,0,1-.056-.056V1.56c.056-.223.223-.334.558-.334h.39l-.112.39a.307.307,0,0,1-.279.167.418.418,0,0,1-.279.056m.5.111v.167H1.6L1.878.78V.5A.289.289,0,0,0,1.767.279c0-.111-.112-.167-.167-.223A1.228,1.228,0,0,0,1.154,0,1.051,1.051,0,0,0,.707.111,1,1,0,0,0,.317.39L.484.669C.54.557.6.557.6.5.652.446.707.446.763.39.819.39.875.334.931.334H1.1A.422.422,0,0,1,1.321.39.12.12,0,0,1,1.432.5a.2.2,0,0,0,.056.111V.892H1.042a1.084,1.084,0,0,0-.725.167.811.811,0,0,0-.335.5.433.433,0,0,0,.112.446,1.026,1.026,0,0,0,.892.111.77.77,0,0,0,.223-.167" transform="translate(0.039)" fill="#fff"/>
          </g>
          <g id="그룹_2714" transform="translate(12.358)">
            <path id="패스_2834" d="M0,3.065H.446L1.059,0H.613Z" fill="#fff"/>
          </g>
          <g id="그룹_2715" transform="translate(14.42 0.004)">
            <path id="패스_2835" d="M.725,1.56c0-.056.056-.056.112-.111l.112-.111c.056,0,.112-.056.167-.056h.167a.335.335,0,0,1,.223.056c.056.056.112.111.112.167s.056.167,0,.223a.706.706,0,0,1-.056.334A.792.792,0,0,1,1.45,2.4c0,.056-.056.111-.112.223-.056.056-.112.111-.167.111a.335.335,0,0,1-.223.056A.418.418,0,0,1,.669,2.73C.613,2.675.558,2.619.558,2.563ZM.446,2.9a.77.77,0,0,0,.223.167.418.418,0,0,0,.279.056,1.228,1.228,0,0,0,.446-.056,1.166,1.166,0,0,0,.335-.223,1.166,1.166,0,0,0,.223-.334,1.311,1.311,0,0,0,.112-.446,1.226,1.226,0,0,0,.056-.446c0-.111-.056-.223-.056-.334C1.9,1.17,1.84,1.059,1.728,1a.949.949,0,0,0-.39-.056A.5.5,0,0,0,1.059,1a.423.423,0,0,0-.223.111L1.059,0H.613L0,3.065H.39Z" fill="#fff"/>
          </g>
          <g id="그룹_2716" transform="translate(16.716 0.951)">
            <path id="패스_2836" d="M.613.669C.613.613.669.557.725.5S.836.39.892.39C.948.334,1,.334,1.115.334A.2.2,0,0,1,1.282.39c.056.056.112.056.112.111s.056.111.056.167.056.167.056.223H.5A.422.422,0,0,1,.613.669M1.673,1.783,1.45,1.56a1.166,1.166,0,0,1-.335.223.418.418,0,0,1-.279.056A.4.4,0,0,1,.5,1.672a.592.592,0,0,1-.056-.446H1.784c0-.056,0-.111.056-.111V1.059C1.84.947,1.9.78,1.9.669S1.84.446,1.84.334A.979.979,0,0,0,1.561.111.531.531,0,0,0,1.171,0a.827.827,0,0,0-.39.056A.857.857,0,0,0,.446.279C.335.39.279.5.167.613a1.626,1.626,0,0,0-.112.5A1.086,1.086,0,0,0,0,1.56a.792.792,0,0,0,.112.334.557.557,0,0,0,.279.223.49.49,0,0,0,.39.056.6.6,0,0,0,.446-.111.766.766,0,0,0,.446-.279" fill="#fff"/>
          </g>
          <g id="그룹_2717" transform="translate(18.718 0.951)">
            <path id="패스_2837" d="M1.728,2.118,2.007.724V.39A.289.289,0,0,0,1.9.167.29.29,0,0,0,1.673.056.607.607,0,0,0,1.394,0a.708.708,0,0,0-.335.056C.948.111.892.167.781.223V.056H.446L0,2.118H.446L.781.613C.836.557.892.446,1,.39A.5.5,0,0,1,1.282.334H1.45c.056,0,.056.056.112.056q0,.084,0,.167V.78L1.282,2.118Z" fill="#fff"/>
          </g>
          <g id="그룹_2718" transform="translate(20.99 0.951)">
            <path id="패스_2838" d="M.613.669C.613.613.669.557.725.5S.836.39.892.39C.948.334,1,.334,1.115.334A.2.2,0,0,1,1.282.39c.056.056.112.056.112.111s.056.111.056.167V.892H.5A.422.422,0,0,1,.613.669M1.673,1.783,1.45,1.56a1.166,1.166,0,0,1-.335.223.418.418,0,0,1-.279.056A.4.4,0,0,1,.5,1.672a.592.592,0,0,1-.056-.446H1.784c0-.056,0-.111.056-.111V1.059C1.84.947,1.9.78,1.9.669S1.84.446,1.84.334A.979.979,0,0,0,1.561.111.531.531,0,0,0,1.171,0a.827.827,0,0,0-.39.056C.669.111.558.223.446.279.335.39.279.5.167.613a1.626,1.626,0,0,0-.112.5A1.086,1.086,0,0,0,0,1.56a.792.792,0,0,0,.112.334.557.557,0,0,0,.279.223.49.49,0,0,0,.39.056.6.6,0,0,0,.446-.111.766.766,0,0,0,.446-.279" fill="#fff"/>
          </g>
          <g id="그룹_2719" transform="translate(23.206 0.04)">
            <path id="패스_2839" d="M.056,1.282c.056,0,.112.056.167.056H.335L0,3.009H.446L.781,1.282h.5l.112-.167c0-.056,0-.111-.112-.111H.892L.948.557C.948.5,1,.446,1.059.39A.2.2,0,0,1,1.227.334h.279L1.561,0H1.227A.418.418,0,0,0,.948.056.571.571,0,0,0,.613.334.335.335,0,0,0,.558.557L.446,1H.223A.335.335,0,0,1,0,.947V1.17c0,.056.056.056.056.111" fill="#fff"/>
          </g>
          <g id="그룹_2720" transform="translate(24.602 0.991)">
            <path id="패스_2840" d="M.446,2.062.892,0H.446L0,2.062Z" fill="#fff"/>
          </g>
          <g id="그룹_2721" transform="translate(25.09 0.084)">
            <path id="패스_2841" d="M.613,0h-.5L0,.446H.5Z" fill="#fff"/>
          </g>
          <g id="그룹_2722" transform="translate(25.91 0.239)">
            <path id="패스_2842" d="M.335,1.114.112,2.34a.342.342,0,0,0,.056.334A.4.4,0,0,0,.5,2.842H.836l.056-.334H.669c-.056,0-.112,0-.112-.056V2.285l.223-1.17h.39L1.227.892c0-.056,0-.111-.112-.111H.836L1,0H.558L.39.78H.223A.422.422,0,0,1,0,.724V.947C0,1,0,1.059.056,1.059a.2.2,0,0,0,.167.056Z" fill="#fff"/>
          </g>
          <g id="그룹_2723" transform="translate(30.13 0.04)">
            <path id="패스_2843" d="M1.282,1H.892L.948.557C.948.5,1,.446,1.059.39A.2.2,0,0,1,1.227.334h.279L1.561,0H1.227A.418.418,0,0,0,.948.056.571.571,0,0,0,.613.334.335.335,0,0,0,.558.557L.446,1H.223A.335.335,0,0,1,0,.947V1.17c0,.056,0,.111.056.111s.112.056.167.056H.335L0,3.009H.446L.781,1.282h.5l.112-.167C1.394,1,1.338,1,1.282,1" fill="#fff"/>
          </g>
          <g id="그룹_2724" transform="translate(31.506 0.965)">
            <path id="패스_2844" d="M1.171.345A.2.2,0,0,1,1.338.4l.167.167L1.784.29,1.561.067A.951.951,0,0,0,1,.067L.836.234V.067H.446L0,2.129H.446L.725.735A.482.482,0,0,1,.892.4.418.418,0,0,1,1.171.345" transform="translate(0 -0.025)" fill="#fff"/>
          </g>
          <g id="그룹_2725" transform="translate(33.193 0.951)">
            <path id="패스_2845" d="M.725.5A.633.633,0,0,1,1.171.334.337.337,0,0,1,1.505.5a.949.949,0,0,1,0,.557c-.112.557-.335.78-.669.78S.39,1.616.446,1.114A2.059,2.059,0,0,1,.725.5m-.669.613A1.086,1.086,0,0,0,0,1.56a.792.792,0,0,0,.112.334.557.557,0,0,0,.279.223.949.949,0,0,0,.39.056,1.228,1.228,0,0,0,.446-.056,1.166,1.166,0,0,0,.335-.223c.056-.111.167-.223.223-.334a3.838,3.838,0,0,1,.167-.446A1.226,1.226,0,0,0,2.007.669.792.792,0,0,0,1.9.334C1.784.223,1.728.111,1.617.056A.949.949,0,0,0,1.227,0,1.228,1.228,0,0,0,.781.056C.669.111.558.223.446.279.335.39.279.5.167.613a1.626,1.626,0,0,0-.112.5" fill="#fff"/>
          </g>
          <g id="그룹_2726" transform="translate(35.299 0.951)">
            <path id="패스_2846" d="M.725.613C.725.557.781.557.781.5L.892.39A.2.2,0,0,0,1,.334h.167A.426.426,0,0,1,1.45.446.262.262,0,0,1,1.505.78L1.282,2.118h.39l.335-1.5c0-.056.056-.056.056-.111C2.119.5,2.175.446,2.23.39A.2.2,0,0,0,2.342.334h.112a.426.426,0,0,1,.279.111A.706.706,0,0,1,2.788.78L2.509,2.118h.446L3.234.724V.446A.289.289,0,0,0,3.122.223.77.77,0,0,0,2.9.056.708.708,0,0,0,2.565,0a.531.531,0,0,0-.39.111A.474.474,0,0,0,1.9.279C1.84.223,1.784.111,1.673.056A.708.708,0,0,0,1.338,0a.418.418,0,0,0-.279.056C.948.111.892.111.781.167V0H.446L0,2.118H.446Z" fill="#fff"/>
          </g>
          <g id="그룹_2727" transform="translate(39.616 0.084)">
            <path id="패스_2847" d="M1.282,2.173a.564.564,0,0,1-.223.39.4.4,0,0,1-.335.167c-.112,0-.167,0-.223-.056a.769.769,0,0,0-.167-.223L0,2.73c.056.056.056.111.112.111l.112.111a.2.2,0,0,0,.167.056H.613a1.227,1.227,0,0,0,.725-.223.8.8,0,0,0,.39-.613L2.175,0H1.728Z" fill="#fff"/>
          </g>
          <g id="그룹_2728" transform="translate(41.96 0.084)">
            <path id="패스_2848" d="M.558.111,0,2.842c0,.111,0,.111.112.111H1.84L1.9,2.619H.5l.223-1H2.063l.056-.334H.781L1,.279H2.4L2.453,0H.725C.669,0,.558.056.558.111" fill="#fff"/>
          </g>
          <g id="그룹_2729" transform="translate(44.091 0.084)">
            <path id="패스_2849" d="M.223,2.953a.2.2,0,0,0,.167.056H.613a1.227,1.227,0,0,0,.725-.223.8.8,0,0,0,.39-.613L2.175,0H1.728L1.282,2.173a.564.564,0,0,1-.223.39.4.4,0,0,1-.335.167c-.112,0-.167,0-.223-.056a.769.769,0,0,0-.167-.223L0,2.73c.056.056.056.111.112.111,0,.056.056.056.112.111" fill="#fff"/>
          </g>
          <g id="그룹_2730" transform="translate(46.563 0.084)">
            <path id="패스_2850" d="M1.727,2.786a.952.952,0,0,0,.39-.724L2.619,0H2.173L1.727,2.118a.688.688,0,0,1-.223.446.942.942,0,0,1-.558.167A.633.633,0,0,1,.5,2.563a.66.66,0,0,1-.056-.446L.89,0H.444L.054,2.118a.592.592,0,0,0,.112.669.878.878,0,0,0,.725.223,1.067,1.067,0,0,0,.836-.223" transform="translate(0.004)" fill="#fff"/>
          </g>
        </g>
        <g id="그룹_2738" transform="translate(50.036 0)">
          <g id="그룹_2732" transform="translate(0 0.135)">
            <path id="패스_2851" d="M1,.446H.5L.558,0h.558ZM.446,3.009H0L.446.892H.892Z" fill="#fff"/>
          </g>
          <g id="그룹_2733" transform="translate(1.01 1)">
            <path id="패스_2852" d="M1.784,1.555a.906.906,0,0,1-.948.613A1.135,1.135,0,0,1,0,1.833l.279-.279a.9.9,0,0,0,.613.279c.279,0,.446-.167.446-.279s0-.279-.167-.279L.892,1.22C.5,1.165.279.942.335.607a.868.868,0,0,1,.948-.613,1.175,1.175,0,0,1,.725.279L1.728.5A.942.942,0,0,0,1.171.329C.892.329.781.44.781.607S.836.886,1,.886l.279.056C1.728,1,1.84,1.22,1.784,1.555Z" transform="translate(0 0.013)" fill="#fff"/>
          </g>
          <g id="그룹_2734" transform="translate(3.183 0.051)">
            <path id="패스_2853" d="M0,3.065.613,0h.446L.446,3.065Z" fill="#fff"/>
          </g>
          <g id="그룹_2735" transform="translate(4.171 1.003)">
            <path id="패스_2854" d="M1.61,2.118H1.22V1.95a.716.716,0,0,1-.558.223c-.5,0-.725-.223-.669-.613C.1,1.114.439.892,1.053.892h.39V.78c.056-.223,0-.446-.335-.446A.9.9,0,0,0,.5.613L.328.39A1.3,1.3,0,0,1,1.164,0c.669,0,.781.39.669.78ZM1,1.226c-.335,0-.5.111-.558.334,0,.111,0,.334.279.334a.716.716,0,0,0,.558-.223l.112-.446Z" transform="translate(0.015)" fill="#fff"/>
          </g>
          <g id="그룹_2736" transform="translate(6.362 1.003)">
            <path id="패스_2855" d="M1.282,2.118,1.561.78C1.617.446,1.45.334,1.227.334a.586.586,0,0,0-.5.279l-.279,1.5H0L.446.056h.39V.223A.647.647,0,0,1,1.394,0a.609.609,0,0,1,.669.724L1.728,2.118Z" fill="#fff"/>
          </g>
          <g id="그룹_2737" transform="translate(8.737 0)">
            <path id="패스_2856" d="M1.241,3.021V2.853a.991.991,0,0,1-.558.223C.07,3.076-.042,2.63.07,1.962S.571.847,1.185.847a.633.633,0,0,1,.446.167L1.854-.1h.39L1.631,3.021Zm.223-1.5a.312.312,0,0,0-.335-.279c-.39,0-.558.279-.613.78s-.056.724.279.724a.665.665,0,0,0,.5-.279Z" transform="translate(-0.031 0.1)" fill="#fff"/>
          </g>
        </g>
      </g>
    </g>
    <g id="그룹_5439" data-name="그룹 5439" transform="translate(326.262 192.398)">
      <path id="패스_5338" data-name="패스 5338" d="M345.237,220.275c-.836.724-1.84.724-2.9-.446l-.446-.446c-1.059-1.17-.948-2.173-.112-2.9s1.84-.78,2.9.39l.446.5C346.185,218.548,346.073,219.551,345.237,220.275Zm-2.23-.947c.725.78,1.282.892,1.784.446s.5-1-.223-1.839l-.446-.5c-.725-.78-1.282-.892-1.784-.446s-.5,1,.223,1.839Z" transform="translate(-341.125 -206.511)" fill="#fff"/>
      <path id="패스_5339" data-name="패스 5339" d="M351.021,209l.39.613-1.84,1.226.781,1.17,1.673-1.114.39.613-1.673,1.114,1.171,1.727-.725.446-2.788-4.179Z" transform="translate(-344.344 -203.428)" fill="#fff"/>
      <path id="패스_5340" data-name="패스 5340" d="M359.388,204.6l.335.669-2.007.947.613,1.282,1.784-.892.335.669-1.784.892.892,1.895-.781.39-2.175-4.514Z" transform="translate(-347.972 -201.479)" fill="#fff"/>
      <path id="패스_5341" data-name="패스 5341" d="M367.853,207.437l-.781.279-1.673-4.737.781-.279Z" transform="translate(-351.865 -200.638)" fill="#fff"/>
      <path id="패스_5342" data-name="패스 5342" d="M374.444,201.789c-.279-.557-.613-.78-1.171-.669-.669.167-.892.669-.669,1.727l.112.613c.223,1.059.669,1.393,1.338,1.282.558-.111.781-.446.781-1.059l.781-.167a1.683,1.683,0,0,1-1.394,1.95c-1.115.223-1.952-.279-2.286-1.783l-.112-.613c-.335-1.56.223-2.34,1.338-2.619a1.705,1.705,0,0,1,2.119,1.17Z" transform="translate(-354.664 -199.616)" fill="#fff"/>
      <path id="패스_5343" data-name="패스 5343" d="M382.838,204.259l-.836.111-.5-4.959.836-.111Z" transform="translate(-358.988 -199.133)" fill="#fff"/>
      <path id="패스_5344" data-name="패스 5344" d="M386.6,203.959,388.44,199h.781l1.673,5.015H390l-.335-1.059h-1.784l-.335,1Zm1.505-1.727h1.338l-.613-2.006Z" transform="translate(-361.244 -199)" fill="#fff"/>
      <path id="패스_5345" data-name="패스 5345" d="M397.748,203.8l2.175.334-.112.724-3.011-.5.781-4.959.836.111Z" transform="translate(-365.757 -199.177)" fill="#fff"/>
      <path id="패스_5346" data-name="패스 5346" d="M413.192,205.254a1.228,1.228,0,0,0-.781-.892c-.5-.167-.836-.111-1,.279-.167.446.112.78.669,1.17.836.557,1.227,1.114.892,1.95a1.492,1.492,0,0,1-2.119.724,2.206,2.206,0,0,1-1.45-1.449l.781-.167a1.369,1.369,0,0,0,.892.947c.613.279.948.056,1.115-.279.167-.39.056-.669-.725-1.17-.836-.557-1.171-1.17-.836-1.95.279-.724.948-1.114,2.063-.669a1.8,1.8,0,0,1,1.282,1.393Z" transform="translate(-371.332 -201.019)" fill="#fff"/>
      <path id="패스_5347" data-name="패스 5347" d="M418.525,211.792l-.725-.39,2.4-4.4.725.39Z" transform="translate(-375.048 -202.542)" fill="#fff"/>
      <path id="패스_5348" data-name="패스 5348" d="M428.384,211.673l-.39.613-1.171-.836-2.453,3.511-.669-.5,2.453-3.511-1.171-.836.39-.613Z" transform="translate(-377.658 -203.649)" fill="#fff"/>
      <path id="패스_5349" data-name="패스 5349" d="M434.587,217.906l-.5.557-1.617-1.5-.892.947,1.505,1.337-.5.557-1.505-1.337-1,1.114,1.617,1.5-.5.557-2.286-2.062,3.4-3.678Z" transform="translate(-379.959 -206.483)" fill="#fff"/>
    </g>
    <path id="SVGID_x5F_1_x5F_" d="M397.067,240.682A34.152,34.152,0,1,1,360.6,209.031,34.136,34.136,0,0,1,397.067,240.682Z" transform="translate(-9.43 -11.004)" fill="none"/>
  </g>
</svg>
