<svg xmlns="http://www.w3.org/2000/svg" id="prefix__main_logo" width="159.986" height="30" viewBox="0 0 159.986 30">
    <defs>
        <style>
            .prefix__cls-1{fill:#fff}
        </style>
    </defs>
    <path id="prefix__패스_1" d="M177.2 29.25a8.747 8.747 0 0 1-4.275 1.275c-4.05 0-5.325-3.225-5.175-6.075a3.328 3.328 0 0 1 .15-.975 24.49 24.49 0 0 0 8.4-1.35c3-1.2 4.575-3 4.575-5.1 0-2.7-2.175-4.425-5.55-4.425a10.752 10.752 0 0 0-8.025 3.675 12.769 12.769 0 0 0-3.3 7.8c-.15 4.35 2.175 9.075 7.875 9.075a10.517 10.517 0 0 0 6.3-2.7.855.855 0 0 0 .225-.45l.225-1.35c0-.15-.075-.225-.15-.075a6.861 6.861 0 0 0-1.275.675zm-9.075-7.875c1.2-4.575 3.825-7.2 6.9-7.2a2.624 2.624 0 0 1 2.85 2.625c-.002 2.85-3.902 4.575-9.752 4.575z" class="prefix__cls-1" data-name="패스 1" transform="translate(-40.987 -3.15)"/>
    <path id="prefix__패스_2" d="M204 29.25a8.746 8.746 0 0 1-4.275 1.275c-4.05 0-5.325-3.225-5.175-6.075a3.33 3.33 0 0 1 .15-.975 24.491 24.491 0 0 0 8.4-1.35c3-1.2 4.575-3 4.575-5.1 0-2.7-2.175-4.425-5.55-4.425a10.752 10.752 0 0 0-8.025 3.675 12.769 12.769 0 0 0-3.3 7.8c-.15 4.35 2.175 9.075 7.875 9.075a10.517 10.517 0 0 0 6.3-2.7.856.856 0 0 0 .225-.45l.225-1.35c0-.15-.075-.225-.15-.075a4.048 4.048 0 0 0-1.275.675zm-9.15-7.875c1.275-4.575 3.825-7.2 6.9-7.2a2.624 2.624 0 0 1 2.85 2.625c0 2.85-3.9 4.575-9.752 4.575z" class="prefix__cls-1" data-name="패스 2" transform="translate(-47.687 -3.15)"/>
    <path id="prefix__패스_3" d="M52.775 23.925c.75-3.675.975-3.825 2.25-5.625 1.5-2.25 3.3-3.45 5.025-3.45 1.5 0 2.25.975 2.25 2.85a7.313 7.313 0 0 1-.15 1.725L59.975 31.5a.723.723 0 0 0 .75.9h4.125l.15-1.05s-.825-.225-.975-.3c-.3-.15-.225-.6-.225-.6l1.95-10.8a22.747 22.747 0 0 0 .45-3.6c0-2.625-1.425-4.05-4.05-4.05a9.937 9.937 0 0 0-5.25 1.725 15.4 15.4 0 0 0-3.075 3.15l.825-4.5-5.1.375-.15 1.05c1.425.45.975 1.8.675 3.3-.075.6-1.95 10.5-2.775 15.225h3.75z" class="prefix__cls-1" data-name="패스 3" transform="translate(-11.814 -3)"/>
    <path id="prefix__패스_4" d="M94.765 31.425a12.858 12.858 0 0 0 5.475 1.425c4.8 0 8.1-2.775 8.1-6.525 0-2.1-1.35-4.125-3.225-5.7-1.95-1.65-3.825-2.55-3.825-4.2 0-1.575 1.275-2.55 3.3-2.55a2.461 2.461 0 0 1 2.85 2.25 3.249 3.249 0 0 0 .075.375l1.35-.15.75-3.3a.573.573 0 0 0-.15-.375 11.379 11.379 0 0 0-3.9-.675 10.592 10.592 0 0 0-5.25 1.425 4.83 4.83 0 0 0-2.325 5.4c.525 1.725 2.325 3 3.825 4.35 1.575 1.35 2.85 2.625 2.85 4.425a3.369 3.369 0 0 1-3.525 3.45 4.251 4.251 0 0 1-3.75-2.325 2.471 2.471 0 0 1-.45-1.425h-1.425l-.825 3.75a.33.33 0 0 0 .075.375z" class="prefix__cls-1" data-name="패스 4" transform="translate(-23.654 -3)"/>
    <g id="prefix__그룹_1" data-name="그룹 1" transform="translate(0 9.6)">
        <path id="prefix__패스_5" d="M7.121 12.8l-5.1.375-.15 1.05c1.425.45.975 1.8.675 3.3C2.471 18.125.6 28.4 0 31.7a.723.723 0 0 0 .75.9h4.121l.15-1.05s-.825-.225-.975-.3c-.3-.15-.225-.6-.225-.6z" class="prefix__cls-1" data-name="패스 5" transform="translate(.015 -12.8)"/>
    </g>
    <path id="prefix__패스_6" d="M87.321 12.8l-5.1.375-.15 1.05c1.425.45.975 1.8.675 3.3-.075.6-1.95 10.875-2.55 14.175a.723.723 0 0 0 .75.9h4.125l.15-1.05s-.825-.225-.975-.3c-.3-.15-.225-.6-.225-.6z" class="prefix__cls-1" data-name="패스 6" transform="translate(-20.035 -3.2)"/>
    <g id="prefix__그룹_2" data-name="그룹 2" transform="translate(107.186 9.375)">
        <path id="prefix__패스_7" d="M142.9 32.6h3.75l1.95-11.175a10.655 10.655 0 0 1 1.05-3.225 3.7 3.7 0 0 1 3.225-1.95 14.872 14.872 0 0 1 3.15.675l.675-3.9a.276.276 0 0 0-.075-.225 2.024 2.024 0 0 0-1.125-.3c-1.8 0-4.125 1.575-6 4.05l.675-3.9-5.1.375-.15 1.05c1.425.45.975 1.8.675 3.3z" class="prefix__cls-1" data-name="패스 7" transform="translate(-142.9 -12.5)"/>
    </g>
    <path id="prefix__패스_8" d="M21.3 23.925c.75-3.675.975-3.825 2.25-5.625 1.5-2.25 3.3-3.45 5.025-3.45 1.5 0 2.25.975 2.25 2.85a7.314 7.314 0 0 1-.15 1.725l-2.1 12.075a.723.723 0 0 0 .75.9h4.125l.15-1.05s-.825-.225-.975-.3c-.3-.15-.225-.6-.225-.6l1.95-10.8a22.748 22.748 0 0 0 .45-3.6c0-2.625-1.425-4.05-4.05-4.05a9.937 9.937 0 0 0-5.25 1.725 15.4 15.4 0 0 0-3.075 3.15l.825-4.5-5.1.375L18 13.8c1.425.45.975 1.8.675 3.3-.075.6-1.95 10.5-2.775 15.225h3.75z" class="prefix__cls-1" data-name="패스 8" transform="translate(-3.964 -3)"/>
    <path id="prefix__패스_9" d="M7.075 6.625A2.177 2.177 0 0 0 9.25 4.45 2.242 2.242 0 0 0 7.075 2.2 2.194 2.194 0 0 0 4.9 4.45a2.177 2.177 0 0 0 2.175 2.175" class="prefix__cls-1" data-name="패스 9" transform="translate(-1.214 -.55)"/>
    <path id="prefix__패스_10" d="M87.275 6.625A2.177 2.177 0 0 0 89.45 4.45a2.242 2.242 0 0 0-2.175-2.25A2.194 2.194 0 0 0 85.1 4.45a2.177 2.177 0 0 0 2.175 2.175" class="prefix__cls-1" data-name="패스 10" transform="translate(-21.264 -.55)"/>
    <path id="prefix__패스_11" d="M138.75 1.05A7.026 7.026 0 0 0 135.375 0a8.736 8.736 0 0 0-5.25 1.65c-2.25 1.5-3.75 4.125-4.65 8.25h-4.125l-.45 2.475h4.125L121.95 29.4h3.825l3.075-17.25h.15l6.15-1.05.15-1.2h-6.075a27.308 27.308 0 0 1 1.8-5.625A3.805 3.805 0 0 1 134.1 2.1a2.987 2.987 0 0 1 3 2.4v.075l1.2-.075s.525-2.7.6-2.925c.075-.3.075-.375-.15-.525z" class="prefix__cls-1" data-name="패스 11" transform="translate(-30.214)"/>
</svg>
