<?xml version="1.0" encoding="utf-8"?>
<!-- Generator: Adobe Illustrator 21.1.0, SVG Export Plug-In . SVG Version: 6.00 Build 0)  -->
<svg version="1.1" id="Layer_1" xmlns="http://www.w3.org/2000/svg" xmlns:xlink="http://www.w3.org/1999/xlink" x="0px" y="0px"
	 viewBox="0 0 700 131" style="enable-background:new 0 0 700 131;" xml:space="preserve">
<style type="text/css">
	.st0{fill:#0B352A;}
</style>
<g id="logo" transform="translate(-269.429 -221.454)">
	<g id="그룹_9">
		<path id="패스_23" class="st0" d="M866,335.8c-5.6,3.5-12.1,5.5-18.7,5.7c-17.7,0-23.2-14.2-22.8-26.7c0-1.5,0.2-3,0.6-4.4
			c12.5,0.2,24.9-1.8,36.7-6c13.1-5.3,20-13,19.9-22.3c-0.1-11.7-9.6-19.3-24.3-19.3c-13.5,0.1-26.2,5.9-35.2,16
			c-8.5,9.4-13.6,21.4-14.6,34.1c-0.7,19.2,9.7,39.7,34.4,39.7c12.6,0,23.9-8.5,27.6-11.8c0.5-0.5,0.9-1.2,1.1-1.9l1-5.9
			c0.1-0.6-0.2-0.8-0.8-0.5C869.7,333.4,867.1,335.1,866,335.8L866,335.8z M826,301.5c5.4-20.2,16.6-31.5,30.3-31.5
			c6.3-0.5,11.8,4.1,12.3,10.4c0,0.4,0,0.8,0,1.2C868.7,293.6,851.7,301.4,826,301.5L826,301.5z"/>
		<path id="패스_24" class="st0" d="M953.7,335.8c-5.6,3.5-12.1,5.5-18.7,5.7c-17.7,0-23.2-14.2-22.8-26.7c0-1.5,0.2-3,0.6-4.4
			c12.5,0.2,24.9-1.8,36.7-6c13.1-5.3,20-13,19.9-22.3c-0.1-11.7-9.6-19.3-24.3-19.3c-13.5,0.1-26.2,5.9-35.2,16
			c-8.5,9.4-13.6,21.4-14.6,34.1c-0.7,19.2,9.7,39.7,34.4,39.7c12.6,0,23.9-8.5,27.6-11.8c0.5-0.5,0.9-1.2,1.1-1.9l1-5.9
			c0.1-0.6-0.2-0.8-0.7-0.5C957.4,333.4,954.8,335.1,953.7,335.8L953.7,335.8z M913.7,301.5c5.4-20.2,16.6-31.5,30.4-31.5
			c6.3-0.5,11.8,4.1,12.3,10.4c0,0.4,0,0.8,0,1.2C956.5,293.6,939.4,301.4,913.7,301.5z"/>
		<path id="패스_25" class="st0" d="M448.7,313.1c3.2-16.1,4.4-16.9,9.7-24.7c6.6-9.8,14.4-15.2,21.9-15.2c6.5,0,9.9,4.3,10,12.4
			c0,2.5-0.2,5.1-0.5,7.6l-9.4,53.5c-0.4,1.8,0.7,3.5,2.5,3.9c0.3,0.1,0.6,0.1,0.9,0.1h18l0.8-4.6c0,0-3.6-1-4.1-1.3
			c-1.2-0.7-0.9-2.5-0.9-2.6l8.6-47.3c1.1-5.2,1.7-10.4,1.9-15.7c-0.1-11.4-6.4-17.7-17.8-17.7c-8.2,0.2-16.2,2.9-22.9,7.7
			c-5.1,3.9-9.6,8.6-13.3,13.9l3.5-19.6l-22.3,1.5l-0.8,4.6c6.4,1.9,4.1,8,3.1,14.3c-0.4,2.5-8.4,46-12.1,66.6H442L448.7,313.1z"/>
		<path id="패스_26" class="st0" d="M580.9,346.1c7.5,3.8,15.7,6,24,6.4c21.1,0,35.3-12.2,35.3-28.7c0-9.3-5.8-18.1-14.3-25.1
			c-8.6-7.1-16.8-11.3-16.8-18.5c0-6.9,5.6-11.2,14.6-11.2c7.5,0,10.9,2.7,12.4,9.8c0.1,0.3,0.3,1.5,0.3,1.5l6-0.7l3.3-14.4
			c0.1-0.6-0.2-1.3-0.8-1.6c-5.5-1.9-11.2-2.8-17-2.8c-8.1,0-16.1,2.2-23.1,6.3c-8.4,4.6-12.6,14.3-10.1,23.6
			c2.2,7.7,10.2,13.1,16.7,18.9c6.8,6.1,12.4,11.6,12.4,19.6c0.2,8.3-6.4,15.1-14.7,15.2c-0.3,0-0.5,0-0.8,0
			c-6.9-0.2-13.3-4.1-16.5-10.2c-1.2-1.8-1.9-4-2-6.1h-6.1l-3.6,16.3C580,345,580.3,345.7,580.9,346.1L580.9,346.1z"/>
		<g id="그룹_7">
			<path id="패스_27" class="st0" d="M300.7,263.4l-22.2,1.5l-0.8,4.6c6.4,1.9,4.1,8,3.1,14.3c-0.5,2.9-8.7,48.2-11.3,62.6
				c-0.4,1.8,0.7,3.5,2.5,3.9c0.3,0.1,0.6,0.1,0.9,0.1h18l0.8-4.6c0,0-3.6-1-4.1-1.3c-1.3-0.7-0.9-2.5-0.9-2.6L300.7,263.4z"/>
		</g>
		<path id="패스_28" class="st0" d="M564,263.4l-22.2,1.5l-0.8,4.6c6.4,1.9,4.1,8,3.1,14.3c-0.5,2.9-8.7,48.2-11.3,62.6
			c-0.4,1.8,0.7,3.5,2.5,3.9c0.3,0.1,0.6,0.1,0.8,0.1h18l0.8-4.6c0,0-3.6-1-4.1-1.3c-1.3-0.7-0.9-2.5-0.9-2.6L564,263.4z"/>
		<g id="그룹_8">
			<path id="패스_29" class="st0" d="M738.9,350.5h16.5l8.7-49c0.6-5,2.2-9.7,4.7-14.1c2.8-5.2,8.1-8.5,14-8.6
				c4.7,0.5,9.3,1.4,13.8,2.9l2.9-17c0-0.3-0.1-0.7-0.3-0.9c-1.5-0.9-3.2-1.3-4.9-1.2c-7.9,0-18.2,6.9-26.4,17.7l3-17l-22.2,1.5
				l-0.8,4.6c6.4,1.9,4.1,8,3.1,14.3L738.9,350.5z"/>
		</g>
		<path id="패스_30" class="st0" d="M345.4,313.1c3.2-16.1,4.4-16.9,9.7-24.7c6.6-9.8,14.4-15.2,21.9-15.2c6.5,0,9.9,4.3,10,12.4
			c0,2.5-0.2,5.1-0.5,7.6l-9.4,53.5c-0.4,1.8,0.7,3.5,2.5,3.9c0.3,0.1,0.6,0.1,0.9,0.1h18l0.8-4.6c0,0-3.6-1-4.1-1.3
			c-1.2-0.7-0.9-2.5-0.9-2.6l8.6-47.3c1.1-5.2,1.7-10.4,1.9-15.7c-0.1-11.4-6.4-17.7-17.8-17.7c-8.2,0.2-16.2,2.9-22.8,7.7
			c-5.1,3.9-9.6,8.6-13.3,13.9l3.5-19.6l-22.3,1.5l-0.8,4.6c6.4,1.9,4.1,8,3.1,14.3c-0.4,2.5-8.4,46-12.1,66.6h16.5L345.4,313.1z"/>
		<path id="패스_31" class="st0" d="M295.2,248.2c5.4,0,9.7-4.3,9.7-9.7c0-5.4-4.3-9.7-9.7-9.7c-5.4,0-9.7,4.3-9.7,9.7
			c0,0,0,0,0,0C285.5,243.9,289.8,248.2,295.2,248.2"/>
		<path id="패스_32" class="st0" d="M558.6,248.2c5.4,0,9.7-4.3,9.7-9.7c0-5.4-4.3-9.7-9.7-9.7c-5.4,0-9.7,4.3-9.7,9.7
			c0,0,0,0,0,0C548.9,243.9,553.2,248.2,558.6,248.2"/>
		<path id="패스_33" class="st0" d="M744.8,226.2c-4.4-2.9-9.5-4.5-14.8-4.7c-8.3,0-16.4,2.5-23.1,7.4c-9.9,6.7-16.4,18.2-20.4,36
			l0,0.1h-18.2l-1.8,10.8h18.1l-13.6,74.8h16.6l13.6-75.5l0.6,0l26.9-4.7l0.8-5.4H703v-0.1c1.7-8.5,4.4-16.8,7.9-24.7
			c2.5-5.4,7.6-9,13.5-9.6c6.4-0.2,11.9,4.2,13.1,10.5l0,0.2l5.3-0.3c0,0,2.3-12,2.5-12.9S745.5,226.6,744.8,226.2L744.8,226.2z"/>
	</g>
</g>
</svg>
